<?xml version="1.0" encoding="UTF-8" standalone="no"?>
<!DOCTYPE svg PUBLIC "-//W3C//DTD SVG 1.1//EN" "http://www.w3.org/Graphics/SVG/1.1/DTD/svg11.dtd">
<svg width="100%" height="100%" viewBox="0 0 1760 1760" version="1.1" xmlns="http://www.w3.org/2000/svg" xmlns:xlink="http://www.w3.org/1999/xlink" xml:space="preserve" xmlns:serif="http://www.serif.com/" style="fill-rule:evenodd;clip-rule:evenodd;stroke-linejoin:round;stroke-miterlimit:2;">
    <g id="Монтажная-область1" serif:id="Монтажная область1" transform="matrix(1.24734,0,0,1.24734,-454.033,-778.342)">
        <rect x="364" y="624" width="1411" height="1411" style="fill:none;"/>
        <clipPath id="_clip1">
            <rect x="364" y="624" width="1411" height="1411"/>
        </clipPath>
        <g clip-path="url(#_clip1)">
            <g transform="matrix(1.33484,0,0,1.33484,-278.974,572.903)">
                <circle cx="1010.21" cy="566.806" r="524.806"/>
            </g>
            <g transform="matrix(0.804536,0,0,0.801705,359.016,624)">
                <rect x="6.194" y="0" width="1753.81" height="1760"/>
            </g>
            <g id="_-Сгруппировать-" serif:id="(Сгруппировать)" transform="matrix(17.3335,0,0,17.395,-3254.5,337.635)">
                <g transform="matrix(1,0,0,1,229.139,48.399)">
                    <path d="M0,17.242C-3.054,17.242 -5.542,14.754 -5.542,11.7C-5.542,8.646 -3.054,6.158 0,6.158C3.054,6.158 5.542,8.646 5.542,11.7C5.542,14.754 3.054,17.242 0,17.242M0,2.463C-2.081,2.463 -4.003,3.153 -5.542,4.335L-5.542,-3.695L-9.237,-3.695L-9.237,12.316L-9.2,12.316C-8.904,17.131 -4.889,20.937 0,20.937C5.099,20.937 9.237,16.799 9.237,11.7C9.237,6.601 5.099,2.463 0,2.463" style="fill:white;fill-rule:nonzero;"/>
                </g>
                <g transform="matrix(1,0,0,1,249.921,54.557)">
                    <path d="M0,11.084C-3.054,11.084 -5.542,8.596 -5.542,5.542C-5.542,2.488 -3.054,0 0,0C3.054,0 5.542,2.488 5.542,5.542C5.542,8.596 3.054,11.084 0,11.084M9.2,4.926C8.904,0.111 4.889,-3.695 0,-3.695C-5.099,-3.695 -9.237,0.443 -9.237,5.542C-9.237,10.641 -5.099,14.779 0,14.779C2.081,14.779 4.003,14.089 5.542,12.907L5.542,14.779L9.237,14.779L9.237,4.926L9.2,4.926Z" style="fill:white;fill-rule:nonzero;"/>
                </g>
                <g transform="matrix(1,0,0,1,278.995,69.2991)">
                    <path d="M0,-18.4L0,-14.705C-0.197,-14.73 -0.406,-14.742 -0.616,-14.742C-3.67,-14.742 -6.158,-12.254 -6.158,-9.2L-6.158,0.037L-9.853,0.037L-9.853,-18.437L-6.158,-18.437L-6.158,-16.565C-4.618,-17.747 -2.697,-18.437 -0.616,-18.437C-0.406,-18.437 -0.209,-18.425 0,-18.4" style="fill:white;fill-rule:nonzero;"/>
                </g>
                <g transform="matrix(-1,0,0,1,262.47,50.8617)">
                    <rect x="-3.695" y="0" width="3.695" height="18.474" style="fill:white;"/>
                </g>
                <g transform="matrix(-1,0,0,1,537.139,-624.062)">
                    <rect x="270.974" y="668.766" width="3.695" height="3.695" style="fill:white;"/>
                </g>
            </g>
        </g>
    </g>
</svg>
