<svg width="168" height="31" viewBox="0 0 168 31" fill="none" xmlns="http://www.w3.org/2000/svg">
<path d="M84.06 14.126C83.388 14.126 82.8 13.9813 82.296 13.692C81.8013 13.3933 81.4187 12.9733 81.148 12.432C80.8773 11.8813 80.742 11.2327 80.742 10.486C80.742 9.73 80.8773 9.08133 81.148 8.54C81.4187 7.99867 81.8013 7.58333 82.296 7.294C82.8 6.99533 83.388 6.846 84.06 6.846C84.7413 6.846 85.3293 6.99533 85.824 7.294C86.328 7.58333 86.7153 7.99867 86.986 8.54C87.266 9.08133 87.406 9.73 87.406 10.486C87.406 11.2327 87.266 11.8813 86.986 12.432C86.7153 12.9733 86.328 13.3933 85.824 13.692C85.3293 13.9813 84.7413 14.126 84.06 14.126ZM84.06 13.202C84.732 13.202 85.264 12.9733 85.656 12.516C86.048 12.0493 86.244 11.3727 86.244 10.486C86.244 9.59 86.048 8.91333 85.656 8.456C85.264 7.98933 84.732 7.756 84.06 7.756C83.3973 7.756 82.87 7.98933 82.478 8.456C82.086 8.91333 81.89 9.59 81.89 10.486C81.89 11.3727 82.086 12.0493 82.478 12.516C82.87 12.9733 83.3973 13.202 84.06 13.202ZM93.2868 17.024V12.432H93.4268C93.2774 12.9733 93.0301 13.3933 92.6848 13.692C92.3488 13.9813 91.9194 14.126 91.3968 14.126C90.8928 14.126 90.4494 13.9767 90.0668 13.678C89.6934 13.3793 89.3994 12.9593 89.1848 12.418C88.9701 11.8673 88.8628 11.2233 88.8628 10.486C88.8628 9.73933 88.9654 9.09533 89.1708 8.554C89.3854 8.00333 89.6794 7.58333 90.0528 7.294C90.4354 6.99533 90.8834 6.846 91.3968 6.846C91.9194 6.846 92.3488 6.99533 92.6848 7.294C93.0301 7.58333 93.2774 7.994 93.4268 8.526H93.2868V3.696H94.4208V8.526H94.2668C94.4161 7.994 94.6634 7.58333 95.0088 7.294C95.3634 6.99533 95.7928 6.846 96.2968 6.846C96.8101 6.846 97.2534 6.99533 97.6268 7.294C98.0094 7.58333 98.3034 8.00333 98.5088 8.554C98.7234 9.09533 98.8308 9.73933 98.8308 10.486C98.8308 11.2233 98.7234 11.8673 98.5088 12.418C98.3034 12.9593 98.0094 13.3793 97.6268 13.678C97.2534 13.9767 96.8101 14.126 96.2968 14.126C95.7928 14.126 95.3681 13.9813 95.0228 13.692C94.6774 13.3933 94.4254 12.9733 94.2668 12.432H94.4208V17.024H93.2868ZM91.6488 13.23C92.1621 13.23 92.5634 12.9967 92.8528 12.53C93.1514 12.0633 93.3008 11.382 93.3008 10.486C93.3008 9.59933 93.1514 8.92267 92.8528 8.456C92.5634 7.98 92.1621 7.742 91.6488 7.742C91.1354 7.742 90.7294 7.98 90.4308 8.456C90.1414 8.92267 89.9968 9.59933 89.9968 10.486C89.9968 11.382 90.1414 12.0633 90.4308 12.53C90.7294 12.9967 91.1354 13.23 91.6488 13.23ZM96.0448 13.23C96.5581 13.23 96.9641 12.9967 97.2628 12.53C97.5614 12.0633 97.7108 11.382 97.7108 10.486C97.7108 9.59933 97.5568 8.92267 97.2488 8.456C96.9501 7.98 96.5488 7.742 96.0448 7.742C95.5314 7.742 95.1254 7.98 94.8268 8.456C94.5374 8.92267 94.3928 9.59933 94.3928 10.486C94.3928 11.382 94.5374 12.0633 94.8268 12.53C95.1254 12.9967 95.5314 13.23 96.0448 13.23ZM100.754 14V6.972H101.888V14H100.754ZM100.614 5.376V4.102H102.014V5.376H100.614ZM110.247 15.82V14H104.171V6.972H105.305V13.104H108.987V6.972H110.093V13.104H111.213V15.82H110.247ZM112.785 14V6.972H113.919V14H112.785ZM112.645 5.376V4.102H114.045V5.376H112.645ZM116.202 14V6.972H117.238V12.95H116.86L121.34 6.972H122.292V14H121.27V8.008H121.648L117.168 14H116.202ZM119.24 6.314C118.857 6.314 118.503 6.24867 118.176 6.118C117.849 5.98733 117.565 5.79133 117.322 5.53C117.079 5.25933 116.897 4.928 116.776 4.536L117.448 4.284C117.616 4.732 117.845 5.06333 118.134 5.278C118.433 5.49267 118.806 5.6 119.254 5.6C119.702 5.6 120.071 5.502 120.36 5.306C120.649 5.11 120.901 4.774 121.116 4.298L121.76 4.536C121.601 4.956 121.396 5.29667 121.144 5.558C120.892 5.81933 120.607 6.01067 120.29 6.132C119.973 6.25333 119.623 6.314 119.24 6.314ZM124.528 14V6.972H125.662V9.912H129.526V6.972H130.66V14H129.526V10.822H125.662V14H124.528ZM132.895 14V6.972H133.931V12.95H133.553L138.033 6.972H138.985V14H137.963V8.008H138.341L133.861 14H132.895ZM141.222 14V6.972H142.258V12.95H141.88L146.36 6.972H147.312V14H146.29V8.008H146.668L142.188 14H141.222ZM144.26 6.314C143.877 6.314 143.522 6.24867 143.196 6.118C142.869 5.98733 142.584 5.79133 142.342 5.53C142.099 5.25933 141.917 4.928 141.796 4.536L142.468 4.284C142.636 4.732 142.864 5.06333 143.154 5.278C143.452 5.49267 143.826 5.6 144.274 5.6C144.722 5.6 145.09 5.502 145.38 5.306C145.669 5.11 145.921 4.774 146.136 4.298L146.78 4.536C146.621 4.956 146.416 5.29667 146.164 5.558C145.912 5.81933 145.627 6.01067 145.31 6.132C144.992 6.25333 144.642 6.314 144.26 6.314ZM81.12 27V19.972H87.21V27H86.076V20.868H82.254V27H81.12ZM89.5022 30.024V21.596C89.5022 21.3347 89.4882 21.0687 89.4602 20.798C89.4415 20.518 89.4182 20.2427 89.3902 19.972H90.4822L90.6362 21.638H90.4682C90.6175 21.0873 90.9208 20.6533 91.3782 20.336C91.8355 20.0093 92.3815 19.846 93.0162 19.846C93.6508 19.846 94.1968 19.9907 94.6542 20.28C95.1208 20.5693 95.4848 20.9847 95.7462 21.526C96.0075 22.0673 96.1382 22.7207 96.1382 23.486C96.1382 24.242 96.0075 24.8907 95.7462 25.432C95.4942 25.9733 95.1348 26.3933 94.6682 26.692C94.2015 26.9813 93.6508 27.126 93.0162 27.126C92.3908 27.126 91.8495 26.9673 91.3922 26.65C90.9348 26.3327 90.6315 25.8987 90.4822 25.348H90.6362V30.024H89.5022ZM92.7922 26.202C93.4642 26.202 93.9962 25.9733 94.3882 25.516C94.7895 25.0493 94.9902 24.3727 94.9902 23.486C94.9902 22.59 94.7895 21.9133 94.3882 21.456C93.9962 20.9893 93.4642 20.756 92.7922 20.756C92.1295 20.756 91.5975 20.9893 91.1962 21.456C90.8042 21.9133 90.6082 22.59 90.6082 23.486C90.6082 24.3727 90.8042 25.0493 91.1962 25.516C91.5975 25.9733 92.1295 26.202 92.7922 26.202ZM101.169 27.126C100.441 27.126 99.8111 26.986 99.2791 26.706C98.7471 26.4167 98.3364 26.0013 98.0471 25.46C97.7578 24.9093 97.6131 24.256 97.6131 23.5C97.6131 22.7627 97.7531 22.1233 98.0331 21.582C98.3131 21.0313 98.7051 20.6067 99.2091 20.308C99.7131 20 100.292 19.846 100.945 19.846C101.589 19.846 102.13 19.9813 102.569 20.252C103.008 20.5227 103.344 20.91 103.577 21.414C103.81 21.9087 103.927 22.4967 103.927 23.178V23.598H98.4811V22.884H103.185L102.947 23.066C102.947 22.3193 102.779 21.736 102.443 21.316C102.107 20.896 101.608 20.686 100.945 20.686C100.469 20.686 100.063 20.798 99.7271 21.022C99.4004 21.246 99.1484 21.5587 98.9711 21.96C98.8031 22.3613 98.7191 22.842 98.7191 23.402V23.528C98.7191 24.4053 98.9338 25.0727 99.3631 25.53C99.8018 25.978 100.413 26.202 101.197 26.202C101.617 26.202 102.009 26.1413 102.373 26.02C102.746 25.8893 103.101 25.6793 103.437 25.39L103.829 26.188C103.521 26.4867 103.129 26.72 102.653 26.888C102.186 27.0467 101.692 27.126 101.169 27.126ZM105.001 28.82V26.104H105.743C106.079 25.628 106.322 25.0587 106.471 24.396C106.62 23.7333 106.695 22.9493 106.695 22.044V19.972H111.637V26.104H112.743V28.82H111.763V27H105.967V28.82H105.001ZM106.835 26.118H110.559V20.854H107.689V22.226C107.689 22.9633 107.614 23.6773 107.465 24.368C107.325 25.0493 107.115 25.6327 106.835 26.118ZM117.271 27.126C116.58 27.126 115.978 26.9767 115.465 26.678C114.961 26.3793 114.569 25.9547 114.289 25.404C114.018 24.8533 113.883 24.2 113.883 23.444C113.883 22.6787 114.023 22.03 114.303 21.498C114.583 20.9567 114.975 20.546 115.479 20.266C115.992 19.986 116.589 19.846 117.271 19.846C117.719 19.846 118.153 19.9253 118.573 20.084C119.002 20.2427 119.357 20.4667 119.637 20.756L119.231 21.568C118.951 21.2973 118.643 21.0967 118.307 20.966C117.98 20.8353 117.658 20.77 117.341 20.77C116.613 20.77 116.048 20.9987 115.647 21.456C115.245 21.9133 115.045 22.5807 115.045 23.458C115.045 24.326 115.245 24.998 115.647 25.474C116.048 25.95 116.613 26.188 117.341 26.188C117.649 26.188 117.966 26.1273 118.293 26.006C118.629 25.8847 118.941 25.684 119.231 25.404L119.637 26.202C119.347 26.5007 118.988 26.7293 118.559 26.888C118.129 27.0467 117.7 27.126 117.271 27.126ZM122.827 27V20.882H120.279V19.972H126.523V20.882H123.961V27H122.827ZM130.43 27.126C129.805 27.126 129.259 26.9813 128.792 26.692C128.325 26.3933 127.961 25.9733 127.7 25.432C127.448 24.8907 127.322 24.242 127.322 23.486C127.322 22.7207 127.448 22.0673 127.7 21.526C127.961 20.9847 128.325 20.5693 128.792 20.28C129.259 19.9907 129.805 19.846 130.43 19.846C131.065 19.846 131.611 20.0093 132.068 20.336C132.535 20.6533 132.843 21.0873 132.992 21.638H132.824L132.978 19.972H134.07C134.042 20.2427 134.014 20.518 133.986 20.798C133.967 21.0687 133.958 21.3347 133.958 21.596V27H132.824V25.348H132.978C132.829 25.8987 132.521 26.3327 132.054 26.65C131.587 26.9673 131.046 27.126 130.43 27.126ZM130.654 26.202C131.326 26.202 131.858 25.9733 132.25 25.516C132.642 25.0493 132.838 24.3727 132.838 23.486C132.838 22.59 132.642 21.9133 132.25 21.456C131.858 20.9893 131.326 20.756 130.654 20.756C129.991 20.756 129.459 20.9893 129.058 21.456C128.666 21.9133 128.47 22.59 128.47 23.486C128.47 24.3727 128.666 25.0493 129.058 25.516C129.459 25.9733 129.991 26.202 130.654 26.202ZM136.245 27V19.972H139.633C140.184 19.972 140.636 20.042 140.991 20.182C141.346 20.322 141.612 20.532 141.789 20.812C141.976 21.0827 142.069 21.4187 142.069 21.82C142.069 22.268 141.91 22.646 141.593 22.954C141.285 23.2527 140.884 23.43 140.389 23.486V23.318C140.968 23.3367 141.43 23.5047 141.775 23.822C142.12 24.1393 142.293 24.55 142.293 25.054C142.293 25.6607 142.069 26.1367 141.621 26.482C141.182 26.8273 140.557 27 139.745 27H136.245ZM137.323 26.23H139.689C140.184 26.23 140.562 26.1273 140.823 25.922C141.094 25.7073 141.229 25.404 141.229 25.012C141.229 24.62 141.094 24.3213 140.823 24.116C140.562 23.9107 140.184 23.808 139.689 23.808H137.323V26.23ZM137.323 23.038H139.563C140.02 23.038 140.375 22.9353 140.627 22.73C140.879 22.5247 141.005 22.24 141.005 21.876C141.005 21.512 140.879 21.232 140.627 21.036C140.375 20.8307 140.02 20.728 139.563 20.728H137.323V23.038ZM144.052 27V19.972H145.186V22.912H149.05V19.972H150.184V27H149.05V23.822H145.186V27H144.052ZM152.419 27V19.972H153.455V25.95H153.077L157.557 19.972H158.509V27H157.487V21.008H157.865L153.385 27H152.419ZM160.745 27V19.972H161.879V22.926H163.209L165.533 19.972H166.779L164.119 23.374L163.811 23.024C164.082 23.052 164.315 23.1173 164.511 23.22C164.707 23.3227 164.894 23.4767 165.071 23.682C165.258 23.8873 165.458 24.172 165.673 24.536L167.129 27H165.911L164.623 24.816C164.464 24.5453 164.31 24.34 164.161 24.2C164.021 24.06 163.858 23.962 163.671 23.906C163.494 23.85 163.27 23.822 162.999 23.822H161.879V27H160.745Z" fill="black"/>
<path d="M10.053 22.8676C6.72924 22.8676 4.02143 20.1502 4.02143 16.8146C4.02143 13.479 6.72924 10.7616 10.053 10.7616C13.3768 10.7616 16.0846 13.479 16.0846 16.8146C16.0846 20.1502 13.3768 22.8676 10.053 22.8676ZM10.053 6.72593C7.78819 6.72593 5.6964 7.47955 4.02143 8.77054V0.00012207H0V17.4874H0.0402695C0.362419 22.7464 4.73212 26.9033 10.053 26.9033C15.6025 26.9033 20.1061 22.3838 20.1061 16.8146C20.1061 11.2455 15.6025 6.72593 10.053 6.72593Z" fill="black"/>
<path d="M32.671 22.8675C29.3472 22.8675 26.6394 20.1501 26.6394 16.8145C26.6394 13.4789 29.3472 10.7615 32.671 10.7615C35.9948 10.7615 38.7026 13.4789 38.7026 16.8145C38.7026 20.1501 35.9948 22.8675 32.671 22.8675ZM42.6838 16.1417C42.3616 10.8828 37.9919 6.72583 32.671 6.72583C27.1216 6.72583 22.618 11.2454 22.618 16.8145C22.618 22.3837 27.1216 26.9032 32.671 26.9032C34.9359 26.9032 37.0277 26.1496 38.7026 24.8586V26.9032H42.7241V16.1417H42.6838Z" fill="black"/>
<path d="M64.3135 6.76636V10.8021C64.0991 10.7748 63.8717 10.7617 63.6431 10.7617C60.3193 10.7617 57.6115 13.4791 57.6115 16.8147V26.9034H53.5901V6.72595H57.6115V8.77056C59.2876 7.47957 61.3783 6.72595 63.6431 6.72595C63.8717 6.72595 64.0861 6.73906 64.3135 6.76636Z" fill="black"/>
<path d="M46.3287 6.72546H50.3501V26.9029H46.3287V6.72546Z" fill="black"/>
<path d="M46.3286 0H50.3501V4.03571H46.3286V0Z" fill="black"/>
</svg>
