<svg width="39" height="40" viewBox="0 0 39 40" fill="none" xmlns="http://www.w3.org/2000/svg">
<path d="M38.3598 0.648944C37.4945 -0.216315 36.1245 -0.216315 35.3314 0.648944L19.4683 16.512L3.67735 0.648944C2.81209 -0.216315 1.4421 -0.216315 0.648944 0.648944C-0.216315 1.5142 -0.216315 2.8842 0.648944 3.67736L16.4399 19.4683L0.648944 35.2593C-0.216315 36.1245 -0.216315 37.4946 0.648944 38.2877C1.5142 39.153 2.8842 39.153 3.67735 38.2877L19.4683 22.5688L35.2593 38.3598C36.1245 39.225 37.4945 39.225 38.2877 38.3598C39.153 37.4945 39.153 36.1245 38.2877 35.3314L22.4967 19.5404L38.2877 3.74945C39.2251 2.88419 39.2251 1.5142 38.3598 0.648944Z" fill="black"/>
</svg>
