<svg width="25" height="32" viewBox="0 0 25 32" fill="none" xmlns="http://www.w3.org/2000/svg">
<path d="M16.9219 14.5486C19.3594 17.0236 19.3594 21.0534 16.9219 23.5284C14.4844 26.0034 10.5156 26.0034 8.07812 23.5284L16.9219 14.5486ZM3.125 0H21.875C22.7038 0 23.4987 0.334305 24.0847 0.929373C24.6708 1.52444 25 2.33152 25 3.17308V28.5577C25 29.3992 24.6708 30.2063 24.0847 30.8014C23.4987 31.3965 22.7038 31.7308 21.875 31.7308H3.125C2.2962 31.7308 1.50134 31.3965 0.915291 30.8014C0.32924 30.2063 0 29.3992 0 28.5577V3.17308C0 2.33152 0.32924 1.52444 0.915291 0.929373C1.50134 0.334305 2.2962 0 3.125 0ZM4.6875 3.17308C4.2731 3.17308 3.87567 3.34023 3.58265 3.63776C3.28962 3.9353 3.125 4.33884 3.125 4.75962C3.125 5.18039 3.28962 5.58393 3.58265 5.88147C3.87567 6.179 4.2731 6.34615 4.6875 6.34615C5.1019 6.34615 5.49933 6.179 5.79235 5.88147C6.08538 5.58393 6.25 5.18039 6.25 4.75962C6.25 4.33884 6.08538 3.9353 5.79235 3.63776C5.49933 3.34023 5.1019 3.17308 4.6875 3.17308ZM9.375 3.17308C8.9606 3.17308 8.56317 3.34023 8.27015 3.63776C7.97712 3.9353 7.8125 4.33884 7.8125 4.75962C7.8125 5.18039 7.97712 5.58393 8.27015 5.88147C8.56317 6.179 8.9606 6.34615 9.375 6.34615C9.7894 6.34615 10.1868 6.179 10.4799 5.88147C10.7729 5.58393 10.9375 5.18039 10.9375 4.75962C10.9375 4.33884 10.7729 3.9353 10.4799 3.63776C10.1868 3.34023 9.7894 3.17308 9.375 3.17308ZM12.5 9.51923C10.0136 9.51923 7.62903 10.5221 5.87087 12.3074C4.11272 14.0926 3.125 16.5138 3.125 19.0385C3.125 21.5631 4.11272 23.9844 5.87087 25.7696C7.62903 27.5548 10.0136 28.5577 12.5 28.5577C14.9864 28.5577 17.371 27.5548 19.1291 25.7696C20.8873 23.9844 21.875 21.5631 21.875 19.0385C21.875 16.5138 20.8873 14.0926 19.1291 12.3074C17.371 10.5221 14.9864 9.51923 12.5 9.51923Z" fill="black" fill-opacity="0.3"/>
</svg>
