<svg width="91" height="33" viewBox="0 0 91 33" fill="none" xmlns="http://www.w3.org/2000/svg">
<path d="M12.1893 8.12618C9.4511 8.12618 6.91167 9.03155 4.88013 10.5994V0H0V21.1325H0.044164C0.44164 27.4921 5.74132 32.5047 12.1893 32.5047C18.9243 32.5047 24.3785 27.0505 24.3785 20.3155C24.3785 13.5804 18.9243 8.12618 12.1893 8.12618ZM12.1893 27.6246C8.14826 27.6246 4.88013 24.3344 4.88013 20.3155C4.88013 16.2965 8.17035 13.0063 12.1893 13.0063C16.2082 13.0063 19.4984 16.2744 19.4984 20.3155C19.4984 24.3565 16.2082 27.6246 12.1893 27.6246Z" fill="black"/>
<path d="M56.817 19.4985C56.4195 13.1388 51.1198 8.12622 44.6719 8.12622C37.9369 8.12622 32.4826 13.5805 32.4826 20.3155C32.4826 27.0505 37.9369 32.5048 44.6719 32.5048C47.41 32.5048 49.9495 31.5994 51.981 30.0316V32.5048H56.8612V19.4985H56.817ZM44.694 27.6246C40.6529 27.6246 37.3848 24.3344 37.3848 20.3155C37.3848 16.2966 40.675 13.0063 44.694 13.0063C48.7129 13.0063 52.0031 16.2966 52.0031 20.3155C52.0031 24.3344 48.7129 27.6246 44.694 27.6246Z" fill="black"/>
<path d="M91 8.17038V13.0505C90.735 13.0284 90.47 13.0063 90.1829 13.0063C86.1419 13.0063 82.8738 16.2966 82.8738 20.3155V32.5048H77.9937V8.12622H82.8738V10.5994C84.9053 9.03158 87.4448 8.12622 90.1829 8.12622C90.47 8.12622 90.735 8.1483 91 8.17038Z" fill="black"/>
<path d="M69.8896 8.12616H65.0095V32.5047H69.8896V8.12616Z" fill="black"/>
<path d="M69.8896 0H65.0095V4.88013H69.8896V0Z" fill="black"/>
</svg>
