<svg width="204" height="28" viewBox="0 0 204 28" fill="none" xmlns="http://www.w3.org/2000/svg">
<path d="M9.22656 6.4375C7.25221 6.4375 5.42115 7.09031 3.95631 8.22079V0.578125H0.4375V15.8157H0.469344C0.755944 20.4013 4.57728 24.0156 9.22656 24.0156C14.0828 24.0156 18.0156 20.0828 18.0156 15.2266C18.0156 10.3703 14.0828 6.4375 9.22656 6.4375ZM9.22656 20.4968C6.3128 20.4968 3.95631 18.1244 3.95631 15.2266C3.95631 12.3287 6.32872 9.95631 9.22656 9.95631C12.1244 9.95631 14.4968 12.3128 14.4968 15.2266C14.4968 18.1403 12.1244 20.4968 9.22656 20.4968Z" fill="#232429"/>
<path d="M41.4213 14.6374C41.1347 10.0518 37.3133 6.4375 32.6641 6.4375C27.8078 6.4375 23.875 10.3703 23.875 15.2266C23.875 20.0828 27.8078 24.0156 32.6641 24.0156C34.6384 24.0156 36.4695 23.3628 37.9343 22.2323V24.0156H41.4531V14.6374H41.4213ZM32.68 20.4968C29.7662 20.4968 27.4097 18.1244 27.4097 15.2266C27.4097 12.3287 29.7821 9.95631 32.68 9.95631C35.5778 9.95631 37.9502 12.3287 37.9502 15.2266C37.9502 18.1244 35.5778 20.4968 32.68 20.4968Z" fill="#232429"/>
<path d="M66.0692 6.46934V9.98815C65.8782 9.97223 65.6871 9.95631 65.4801 9.95631C62.5663 9.95631 60.2098 12.3287 60.2098 15.2266V24.0156H56.691V6.4375H60.2098V8.22079C61.6747 7.09031 63.5057 6.4375 65.4801 6.4375C65.6871 6.4375 65.8782 6.45342 66.0692 6.46934Z" fill="#232429"/>
<path d="M50.8313 6.4375H47.3125V24.0156H50.8313V6.4375Z" fill="#232429"/>
<path d="M50.8313 0.578125H47.3125V4.09693H50.8313V0.578125Z" fill="#232429"/>
<path d="M76.3469 11.7152C75.6157 11.7152 74.9758 11.5578 74.4274 11.243C73.8891 10.918 73.4727 10.4609 73.1782 9.87187C72.8836 9.27266 72.7364 8.5668 72.7364 7.7543C72.7364 6.93164 72.8836 6.22578 73.1782 5.63672C73.4727 5.04766 73.8891 4.5957 74.4274 4.28086C74.9758 3.95586 75.6157 3.79336 76.3469 3.79336C77.0883 3.79336 77.7282 3.95586 78.2665 4.28086C78.8149 4.5957 79.2364 5.04766 79.5309 5.63672C79.8356 6.22578 79.9879 6.93164 79.9879 7.7543C79.9879 8.5668 79.8356 9.27266 79.5309 9.87187C79.2364 10.4609 78.8149 10.918 78.2665 11.243C77.7282 11.5578 77.0883 11.7152 76.3469 11.7152ZM76.3469 10.7098C77.0782 10.7098 77.6571 10.4609 78.0836 9.96328C78.5102 9.45547 78.7235 8.71914 78.7235 7.7543C78.7235 6.7793 78.5051 6.04297 78.0684 5.54531C77.6418 5.0375 77.068 4.78359 76.3469 4.78359C75.6258 4.78359 75.052 5.0375 74.6254 5.54531C74.1989 6.04297 73.9856 6.7793 73.9856 7.7543C73.9856 8.71914 74.1989 9.45547 74.6254 9.96328C75.052 10.4609 75.6258 10.7098 76.3469 10.7098ZM86.3872 14.8688V9.87187H86.5396C86.3771 10.4609 86.1079 10.918 85.7321 11.243C85.3665 11.5578 84.8993 11.7152 84.3306 11.7152C83.7821 11.7152 83.2997 11.5527 82.8833 11.2277C82.4771 10.9027 82.1571 10.4457 81.9235 9.85664C81.6899 9.25742 81.5731 8.55664 81.5731 7.7543C81.5731 6.9418 81.6849 6.24101 81.9083 5.65195C82.1419 5.05273 82.4618 4.5957 82.8681 4.28086C83.2845 3.95586 83.772 3.79336 84.3306 3.79336C84.8993 3.79336 85.3665 3.95586 85.7321 4.28086C86.1079 4.5957 86.3771 5.04258 86.5396 5.62148H86.3872V0.365623H87.6212V5.62148H87.4536C87.6161 5.04258 87.8853 4.5957 88.261 4.28086C88.647 3.95586 89.1142 3.79336 89.6626 3.79336C90.2212 3.79336 90.7036 3.95586 91.1099 4.28086C91.5263 4.5957 91.8462 5.05273 92.0696 5.65195C92.3032 6.24101 92.42 6.9418 92.42 7.7543C92.42 8.55664 92.3032 9.25742 92.0696 9.85664C91.8462 10.4457 91.5263 10.9027 91.1099 11.2277C90.7036 11.5527 90.2212 11.7152 89.6626 11.7152C89.1142 11.7152 88.6521 11.5578 88.2763 11.243C87.9005 10.918 87.6263 10.4609 87.4536 9.87187H87.6212V14.8688H86.3872ZM84.6048 10.7402C85.1634 10.7402 85.6001 10.4863 85.9149 9.97852C86.2399 9.4707 86.4024 8.7293 86.4024 7.7543C86.4024 6.78945 86.2399 6.05312 85.9149 5.54531C85.6001 5.02734 85.1634 4.76836 84.6048 4.76836C84.0462 4.76836 83.6044 5.02734 83.2794 5.54531C82.9646 6.05312 82.8071 6.78945 82.8071 7.7543C82.8071 8.7293 82.9646 9.4707 83.2794 9.97852C83.6044 10.4863 84.0462 10.7402 84.6048 10.7402ZM89.3884 10.7402C89.947 10.7402 90.3888 10.4863 90.7138 9.97852C91.0388 9.4707 91.2013 8.7293 91.2013 7.7543C91.2013 6.78945 91.0337 6.05312 90.6985 5.54531C90.3735 5.02734 89.9368 4.76836 89.3884 4.76836C88.8298 4.76836 88.388 5.02734 88.063 5.54531C87.7481 6.05312 87.5907 6.78945 87.5907 7.7543C87.5907 8.7293 87.7481 9.4707 88.063 9.97852C88.388 10.4863 88.8298 10.7402 89.3884 10.7402ZM94.513 11.5781V3.93047H95.747V11.5781H94.513ZM94.3606 2.19375V0.807421H95.8841V2.19375H94.3606ZM104.843 13.5586V11.5781H98.2309V3.93047H99.4649V10.6031H103.471V3.93047H104.675V10.6031H105.894V13.5586H104.843ZM107.605 11.5781V3.93047H108.839V11.5781H107.605ZM107.453 2.19375V0.807421H108.976V2.19375H107.453ZM111.323 11.5781V3.93047H112.45V10.4355H112.039L116.914 3.93047H117.95V11.5781H116.838V5.05781H117.249L112.374 11.5781H111.323ZM114.629 3.21445C114.212 3.21445 113.826 3.14336 113.471 3.00117C113.115 2.85898 112.806 2.6457 112.542 2.36133C112.278 2.0668 112.08 1.70625 111.948 1.27969L112.679 1.00547C112.862 1.49297 113.11 1.85351 113.425 2.08711C113.75 2.3207 114.157 2.4375 114.644 2.4375C115.132 2.4375 115.533 2.33086 115.848 2.11758C116.162 1.9043 116.437 1.53867 116.67 1.0207L117.371 1.27969C117.107 1.97031 116.736 2.46797 116.259 2.77266C115.792 3.06719 115.248 3.21445 114.629 3.21445ZM120.383 11.5781V3.93047H121.617V7.12969H125.822V3.93047H127.056V11.5781H125.822V8.11992H121.617V11.5781H120.383ZM129.488 11.5781V3.93047H130.615V10.4355H130.204L135.079 3.93047H136.115V11.5781H135.003V5.05781H135.414L130.539 11.5781H129.488ZM138.548 11.5781V3.93047H139.676V10.4355H139.264L144.139 3.93047H145.175V11.5781H144.063V5.05781H144.475L139.6 11.5781H138.548ZM141.854 3.21445C141.438 3.21445 141.052 3.14336 140.696 3.00117C140.341 2.85898 140.031 2.6457 139.767 2.36133C139.503 2.0668 139.305 1.70625 139.173 1.27969L139.904 1.00547C140.087 1.49297 140.336 1.85351 140.651 2.08711C140.976 2.3207 141.382 2.4375 141.87 2.4375C142.357 2.4375 142.758 2.33086 143.073 2.11758C143.388 1.9043 143.662 1.53867 143.896 1.0207L144.596 1.27969C144.332 1.97031 143.962 2.46797 143.484 2.77266C143.017 3.06719 142.474 3.21445 141.854 3.21445ZM73.1477 24.5781V16.9305H79.7747V24.5781H78.5407V17.9055H74.3817V24.5781H73.1477ZM82.2689 27.8688V18.6977C82.2689 18.4133 82.2537 18.1238 82.2232 17.8293C82.2029 17.5246 82.1775 17.225 82.1471 16.9305H83.3353L83.5029 18.7434H83.3201C83.4826 18.1441 83.8127 17.6719 84.3103 17.3266C84.808 16.9711 85.4021 16.7934 86.0928 16.7934C86.7834 16.7934 87.3775 16.9508 87.8752 17.2656C88.383 17.5805 88.7791 18.0324 89.0635 18.6215C89.3478 19.2105 89.49 19.9215 89.49 20.7543C89.49 21.577 89.3478 22.2828 89.0635 22.8719C88.7892 23.4609 88.3982 23.918 87.8904 24.243C87.3826 24.5578 86.7834 24.7152 86.0928 24.7152C85.4123 24.7152 84.8232 24.5426 84.3256 24.1973C83.8279 23.852 83.4978 23.3797 83.3353 22.7805H83.5029V27.8688H82.2689ZM85.849 23.7098C86.5803 23.7098 87.1592 23.4609 87.5857 22.9633C88.0224 22.4555 88.2408 21.7191 88.2408 20.7543C88.2408 19.7793 88.0224 19.043 87.5857 18.5453C87.1592 18.0375 86.5803 17.7836 85.849 17.7836C85.1279 17.7836 84.549 18.0375 84.1123 18.5453C83.6857 19.043 83.4724 19.7793 83.4724 20.7543C83.4724 21.7191 83.6857 22.4555 84.1123 22.9633C84.549 23.4609 85.1279 23.7098 85.849 23.7098ZM94.9645 24.7152C93.7661 24.7152 92.8216 24.3699 92.1309 23.6793C91.4403 22.9785 91.095 22.0086 91.095 20.7695C91.095 19.9672 91.2473 19.2715 91.552 18.6824C91.8567 18.0832 92.2833 17.6211 92.8317 17.2961C93.3801 16.9609 94.0098 16.7934 94.7208 16.7934C95.4216 16.7934 96.0106 16.9406 96.488 17.2352C96.9653 17.5297 97.3309 17.9512 97.5848 18.4996C97.8387 19.0379 97.9657 19.6777 97.9657 20.4191V20.8762H92.0395V20.0992H97.1583L96.8993 20.2973C96.8993 19.4848 96.7165 18.85 96.3509 18.393C95.9852 17.9359 95.4419 17.7074 94.7208 17.7074C93.9591 17.7074 93.3649 17.9766 92.9384 18.5148C92.5118 19.043 92.2985 19.759 92.2985 20.6629V20.8C92.2985 21.7547 92.5321 22.4809 92.9993 22.9785C93.4766 23.466 94.1419 23.7098 94.995 23.7098C95.452 23.7098 95.8786 23.6437 96.2747 23.5117C96.6809 23.3695 97.0669 23.141 97.4325 22.8262L97.8591 23.6945C97.5239 24.0195 97.0973 24.2734 96.5794 24.4562C96.0716 24.6289 95.5333 24.7152 94.9645 24.7152ZM99.1343 26.5586V23.6031H99.9418C100.307 23.0852 100.571 22.4656 100.734 21.7445C100.896 21.0234 100.978 20.1703 100.978 19.1852V16.9305H106.355V23.6031H107.559V26.5586H106.493V24.5781H100.186V26.5586H99.1343ZM101.13 23.6184H105.182V17.8902H102.059V19.3832C102.059 20.1855 101.978 20.9625 101.816 21.7141C101.663 22.4555 101.435 23.0902 101.13 23.6184ZM112.486 24.7152C111.734 24.7152 111.079 24.5527 110.52 24.2277C109.972 23.9027 109.545 23.4406 109.241 22.8414C108.946 22.2422 108.799 21.5312 108.799 20.7086C108.799 19.8758 108.951 19.1699 109.256 18.591C109.561 18.002 109.987 17.5551 110.536 17.2504C111.094 16.9457 111.744 16.7934 112.486 16.7934C112.973 16.7934 113.445 16.8797 113.903 17.0523C114.37 17.225 114.756 17.4687 115.06 17.7836L114.619 18.6672C114.314 18.3727 113.979 18.1543 113.613 18.0121C113.258 17.8699 112.907 17.7988 112.562 17.7988C111.77 17.7988 111.155 18.0477 110.719 18.5453C110.282 19.043 110.063 19.7691 110.063 20.7238C110.063 21.6684 110.282 22.3996 110.719 22.9176C111.155 23.4355 111.77 23.6945 112.562 23.6945C112.897 23.6945 113.242 23.6285 113.598 23.4965C113.963 23.3645 114.304 23.1461 114.619 22.8414L115.06 23.7098C114.745 24.0348 114.354 24.2836 113.887 24.4562C113.42 24.6289 112.953 24.7152 112.486 24.7152ZM118.532 24.5781V17.9207H115.759V16.9305H122.554V17.9207H119.766V24.5781H118.532ZM126.805 24.7152C126.125 24.7152 125.531 24.5578 125.023 24.243C124.515 23.918 124.119 23.4609 123.835 22.8719C123.561 22.2828 123.423 21.577 123.423 20.7543C123.423 19.9215 123.561 19.2105 123.835 18.6215C124.119 18.0324 124.515 17.5805 125.023 17.2656C125.531 16.9508 126.125 16.7934 126.805 16.7934C127.496 16.7934 128.09 16.9711 128.588 17.3266C129.096 17.6719 129.431 18.1441 129.593 18.7434H129.411L129.578 16.9305H130.766C130.736 17.225 130.705 17.5246 130.675 17.8293C130.655 18.1238 130.645 18.4133 130.645 18.6977V24.5781H129.411V22.7805H129.578C129.416 23.3797 129.08 23.852 128.573 24.1973C128.065 24.5426 127.476 24.7152 126.805 24.7152ZM127.049 23.7098C127.78 23.7098 128.359 23.4609 128.786 22.9633C129.212 22.4555 129.426 21.7191 129.426 20.7543C129.426 19.7793 129.212 19.043 128.786 18.5453C128.359 18.0375 127.78 17.7836 127.049 17.7836C126.328 17.7836 125.749 18.0375 125.312 18.5453C124.886 19.043 124.673 19.7793 124.673 20.7543C124.673 21.7191 124.886 22.4555 125.312 22.9633C125.749 23.4609 126.328 23.7098 127.049 23.7098ZM133.133 24.5781V16.9305H136.82C137.703 16.9305 138.364 17.1031 138.8 17.4484C139.247 17.7836 139.471 18.2812 139.471 18.9414C139.471 19.4289 139.298 19.8402 138.953 20.1754C138.617 20.5004 138.181 20.6934 137.642 20.7543V20.5715C138.272 20.5918 138.775 20.7746 139.151 21.1199C139.526 21.4652 139.714 21.9121 139.714 22.4605C139.714 23.1207 139.471 23.6387 138.983 24.0145C138.506 24.3902 137.825 24.5781 136.942 24.5781H133.133ZM134.306 23.7402H136.881C137.419 23.7402 137.83 23.6285 138.115 23.4051C138.409 23.1715 138.557 22.8414 138.557 22.4148C138.557 21.9883 138.409 21.6633 138.115 21.4398C137.83 21.2164 137.419 21.1047 136.881 21.1047H134.306V23.7402ZM134.306 20.2668H136.744C137.241 20.2668 137.627 20.1551 137.901 19.9316C138.176 19.7082 138.313 19.3984 138.313 19.0023C138.313 18.6062 138.176 18.3016 137.901 18.0883C137.627 17.8648 137.241 17.7531 136.744 17.7531H134.306V20.2668ZM141.628 24.5781V16.9305H142.862V20.1297H147.067V16.9305H148.301V24.5781H147.067V21.1199H142.862V24.5781H141.628ZM150.733 24.5781V16.9305H151.86V23.4355H151.449L156.324 16.9305H157.36V24.5781H156.248V18.0578H156.659L151.784 24.5781H150.733ZM159.793 24.5781V16.9305H161.027V20.1449H162.474L165.003 16.9305H166.359L163.465 20.6324L163.13 20.2516C163.424 20.282 163.678 20.3531 163.891 20.4648C164.105 20.5766 164.308 20.7441 164.501 20.9676C164.704 21.191 164.922 21.5008 165.156 21.8969L166.74 24.5781H165.415L164.013 22.2016C163.84 21.907 163.673 21.6836 163.51 21.5312C163.358 21.3789 163.18 21.2723 162.977 21.2113C162.784 21.1504 162.54 21.1199 162.246 21.1199H161.027V24.5781H159.793Z" fill="black"/>
</svg>
