<svg width="100" height="19" viewBox="0 0 100 19" fill="none" xmlns="http://www.w3.org/2000/svg">
<path d="M95.9125 2.77491L91.975 2.7749L91.975 5.66241L91.975 8.54991L90.1375 8.54991L88.3 8.54991L88.3 5.66241L88.3 2.7749L86.4625 2.7749L84.625 2.7749L84.625 5.66241L84.625 8.54991L82.525 8.54991L80.425 8.54991L80.425 5.6624L80.425 2.7749L78.5875 2.7749L76.75 2.7749L76.75 5.6624L76.75 8.54991L74.9125 8.54991L73.075 8.54991L73.075 5.6624L73.075 2.7749L70.975 2.7749L68.875 2.7749L68.875 5.6624L68.875 8.5499L67.0375 8.5499L65.2 8.5499L65.2 5.6624L65.2 2.7749L63.1 2.7749L61 2.7749L61 5.6624C61 8.4974 61 8.5499 59.425 8.5499C57.85 8.5499 57.85 8.4974 57.85 5.6624L57.85 2.7749L55.75 2.7749L53.65 2.7749L53.65 5.6624L53.65 8.5499L51.8125 8.5499L49.975 8.5499L49.975 5.6624L49.975 2.7749L47.875 2.7749L45.775 2.7749L45.775 5.6624L45.775 8.5499L43.9375 8.5499L42.1 8.5499L42.1 5.6624L42.1 2.7749L40.2625 2.7749L38.425 2.7749L38.425 5.6624L38.425 8.5499L36.325 8.5499L34.225 8.5499L34.225 12.4874L34.225 16.4249L36.325 16.4249L38.425 16.4249L38.425 13.5374L38.425 10.6499L40.2625 10.6499L42.1 10.6499L42.1 13.5374L42.1 16.4249L43.9375 16.4249L45.775 16.4249L45.775 13.5374L45.775 10.6499L47.875 10.6499L49.975 10.6499L49.975 13.5374L49.975 16.4249L51.8125 16.4249L53.65 16.4249L53.65 13.5374L53.65 10.6499L55.4875 10.6499L57.325 10.6499L57.325 13.5374L57.325 16.4249L59.425 16.4249L61.525 16.4249L61.525 13.5374L61.525 10.6499L63.3625 10.6499L65.2 10.6499L65.2 13.5374L65.2 16.4249L67.0375 16.4249L68.875 16.4249L68.875 13.5374L68.875 10.6499L70.7125 10.6499L72.55 10.6499L72.55 13.5374L72.55 16.4249L74.65 16.4249L76.75 16.4249L76.75 13.5374L76.75 10.6499L78.5875 10.6499L80.425 10.6499L80.425 13.5374L80.425 16.4249L82.525 16.4249L84.625 16.4249L84.625 13.5374L84.625 10.6499L86.4625 10.6499L88.3 10.6499L88.3 13.5374L88.3 16.4249L90.1375 16.4249L91.975 16.4249L91.975 13.5374L91.975 10.6499L94.075 10.6499L96.175 10.6499L96.175 13.5374L96.175 16.4249L98.0125 16.4249L99.85 16.4249L99.85 9.59991L99.85 2.77491L95.9125 2.77491Z" fill="#B3B3B3"/>
<path d="M32.125 3.82498C30.8125 2.51248 28.87 2.45998 27.7675 3.71998C27.085 4.50748 26.875 5.76748 26.875 9.70498C26.875 15.2175 27.4525 16.425 30.1825 16.425C32.44 16.425 33.175 14.745 33.175 9.49498C33.175 5.55748 33.0175 4.71748 32.125 3.82498Z" fill="#B3B3B3"/>
<path d="M22.2025 3.72C20.89 2.6175 19.63 2.3025 12.805 1.46249C8.49997 0.937495 4.29998 0.674994 3.56498 0.884994C1.09748 1.51499 0.0999754 3.98249 0.0999752 9.6C0.099975 15.2175 1.09747 17.685 3.56497 18.315C4.87747 18.6825 19.7875 17.16 20.8375 16.5825C21.1 16.425 21.8875 15.795 22.57 15.2175C23.62 14.2725 23.725 13.6425 23.725 9.5475C23.725 5.1375 23.6725 4.9275 22.2025 3.72ZM19.0525 12.2775C18.265 13.275 17.53 13.5375 15.5875 13.5375C13.645 13.5375 12.91 13.275 12.1225 12.2775C10.075 9.7575 11.335 6.24 14.485 5.6625C16.3225 5.295 19.21 6.3975 19.6825 7.605C20.26 9.075 19.9975 11.1225 19.0525 12.2775Z" fill="#B3B3B3"/>
</svg>
